<?xml version="1.0" encoding="UTF-8" standalone="no"?>
<svg
   xmlns:dc="http://purl.org/dc/elements/1.1/"
   xmlns:cc="http://creativecommons.org/ns#"
   xmlns:rdf="http://www.w3.org/1999/02/22-rdf-syntax-ns#"
   xmlns:svg="http://www.w3.org/2000/svg"
   xmlns="http://www.w3.org/2000/svg"
   xmlns:sodipodi="http://sodipodi.sourceforge.net/DTD/sodipodi-0.dtd"
   xmlns:inkscape="http://www.inkscape.org/namespaces/inkscape"
   version="1.1"
   id="Capa_1"
   x="0px"
   y="0px"
   viewBox="0 0 60.176 60.176"
   style="enable-background:new 0 0 60.176 60.176;"
   xml:space="preserve"
   sodipodi:docname="02d.svg"
   inkscape:version="1.0.2-2 (e86c870879, 2021-01-15)"><metadata
   id="metadata71"><rdf:RDF><cc:Work
       rdf:about=""><dc:format>image/svg+xml</dc:format><dc:type
         rdf:resource="http://purl.org/dc/dcmitype/StillImage" /><dc:title></dc:title></cc:Work></rdf:RDF></metadata><defs
   id="defs69" /><sodipodi:namedview
   pagecolor="#ffffff"
   bordercolor="#666666"
   borderopacity="1"
   objecttolerance="10"
   gridtolerance="10"
   guidetolerance="10"
   inkscape:pageopacity="0"
   inkscape:pageshadow="2"
   inkscape:window-width="1920"
   inkscape:window-height="1001"
   id="namedview67"
   showgrid="false"
   inkscape:zoom="6.8964373"
   inkscape:cx="34.176016"
   inkscape:cy="23.354032"
   inkscape:window-x="-9"
   inkscape:window-y="-9"
   inkscape:window-maximized="1"
   inkscape:current-layer="Capa_1" />
<g
   id="g18">
	<path
   style="fill:#F0C419;"
   d="M6.139,23.807c0-0.552-0.447-1-1-1H1c-0.553,0-1,0.448-1,1s0.447,1,1,1h4.139   C5.691,24.807,6.139,24.359,6.139,23.807z"
   id="path2" />
	<path
   style="fill:#F0C419;"
   d="M21,2.807c-0.553,0-1,0.448-1,1v4.138c0,0.552,0.447,1,1,1s1-0.448,1-1V3.807   C22,3.255,21.553,2.807,21,2.807z"
   id="path4" />
	<path
   style="fill:#F0C419;"
   d="M6.535,7.927c-0.391-0.391-1.023-0.391-1.414,0s-0.391,1.023,0,1.414l3.956,3.956   c0.195,0.195,0.451,0.293,0.707,0.293s0.512-0.098,0.707-0.293c0.391-0.391,0.391-1.023,0-1.414L6.535,7.927z"
   id="path6" />
	<path
   style="fill:#F0C419;"
   d="M36.88,7.927c-0.391-0.391-1.023-0.391-1.414,0l-3.956,3.956c-0.391,0.391-0.391,1.023,0,1.414   c0.195,0.195,0.451,0.293,0.707,0.293s0.512-0.098,0.707-0.293l3.956-3.956C37.271,8.951,37.271,8.318,36.88,7.927z"
   id="path8" />
	<path
   style="fill:#F0C419;"
   d="M14.915,6.91c-0.217-0.509-0.808-0.745-1.312-0.53c-0.509,0.216-0.746,0.803-0.53,1.311l0.809,1.905   c0.162,0.381,0.532,0.61,0.921,0.61c0.131,0,0.264-0.026,0.391-0.08c0.509-0.216,0.746-0.803,0.53-1.311L14.915,6.91z"
   id="path10" />
	<path
   style="fill:#F0C419;"
   d="M28.093,6.254c-0.513-0.205-1.095,0.041-1.302,0.553l-0.775,1.918   c-0.207,0.512,0.04,1.095,0.552,1.302c0.123,0.049,0.25,0.073,0.375,0.073c0.396,0,0.77-0.236,0.927-0.626l0.775-1.918   C28.852,7.044,28.604,6.461,28.093,6.254z"
   id="path12" />
	<path
   style="fill:#F0C419;"
   d="M6.009,29.084l-1.904,0.809c-0.509,0.216-0.746,0.803-0.53,1.311c0.162,0.381,0.532,0.61,0.921,0.61   c0.131,0,0.264-0.026,0.391-0.08l1.904-0.809c0.509-0.216,0.746-0.803,0.53-1.311C7.104,29.105,6.512,28.869,6.009,29.084z"
   id="path14" />
	<path
   style="fill:#F0C419;"
   d="M4,18.017l1.918,0.775c0.123,0.049,0.25,0.073,0.375,0.073c0.396,0,0.77-0.236,0.927-0.625   c0.207-0.512-0.04-1.095-0.552-1.302L4.75,16.162c-0.512-0.205-1.095,0.041-1.302,0.552C3.241,17.227,3.488,17.81,4,18.017z"
   id="path16" />
</g>
<g
   id="g22">
	<path
   style="fill:#ede21b"
   d="m 12.806,34.876 c 0.719,0.079 1.418,0.223 2.087,0.439 C 14.447,33.288 33.045197,21.753571 34.467197,20.026571 36.339197,17.753571 21.197,26.294 23.842,27.133 l 0.012,0.004 C 24.67,25.082 30.438755,26.72503 32.754755,26.18003 33.578755,25.98603 30.402,22.674 31.197,22.77 c -0.007,-0.155 2.027644,4.512013 2.027644,4.355013 0,-2.063 3.167304,-3.264275 -0.418644,-10.424013 C 30.39,12.7 26.015,10.014 21,10.014 c -7.618,0 -13.793,6.175 -13.793,13.793 0,4.544 2.207,8.559 5.599,11.069 z"
   id="path20"
   sodipodi:nodetypes="cccccccscssc" />
</g>




<g
   id="g36">
</g>
<g
   id="g38">
</g>
<g
   id="g40">
</g>
<g
   id="g42">
</g>
<g
   id="g44">
</g>
<g
   id="g46">
</g>
<g
   id="g48">
</g>
<g
   id="g50">
</g>
<g
   id="g52">
</g>
<g
   id="g54">
</g>
<g
   id="g56">
</g>
<g
   id="g58">
</g>
<g
   id="g60">
</g>
<g
   id="g62">
</g>
<g
   id="g64">
</g>
<path
   d="M 43.248157,35.624141 A 14.765489,14.765489 0 0 0 14.63592,32.375734 9.8436596,9.8436596 0 0 0 15.446381,52.030241 H 43.33675 a 8.2031696,8.2031696 0 1 0 -0.08859,-16.4061 z"
   id="path2-4"
   style="fill:#71a8de;fill-opacity:1;stroke-width:3.28122" /><path
   d="M 51.551084,39.998693 C 49.98142,37.235995 47.338985,35.245558 44.25037,34.499369 41.83321,25.348316 34.466756,19.997164 25.165092,21.747439 c 5.690511,-10.479012 19.567902,-8.93989 22.546965,2.606398 9.026527,-0.460841 12.053928,11.879063 3.839027,15.648138 z"
   id="path4-0"
   style="fill:#71a8de;fill-opacity:1;stroke-width:3.28122"
   sodipodi:nodetypes="cccccc" /></svg>
