<?xml version="1.0" encoding="UTF-8" standalone="no"?>
<svg
   xmlns:dc="http://purl.org/dc/elements/1.1/"
   xmlns:cc="http://creativecommons.org/ns#"
   xmlns:rdf="http://www.w3.org/1999/02/22-rdf-syntax-ns#"
   xmlns:svg="http://www.w3.org/2000/svg"
   xmlns="http://www.w3.org/2000/svg"
   xmlns:sodipodi="http://sodipodi.sourceforge.net/DTD/sodipodi-0.dtd"
   xmlns:inkscape="http://www.inkscape.org/namespaces/inkscape"
   version="1.1"
   id="Capa_1"
   x="0px"
   y="0px"
   viewBox="0 0 60.176 60.176"
   style="enable-background:new 0 0 60.176 60.176;"
   xml:space="preserve"
   sodipodi:docname="02n.svg"
   inkscape:version="1.0.2-2 (e86c870879, 2021-01-15)"><metadata
   id="metadata71"><rdf:RDF><cc:Work
       rdf:about=""><dc:format>image/svg+xml</dc:format><dc:type
         rdf:resource="http://purl.org/dc/dcmitype/StillImage" /><dc:title></dc:title></cc:Work></rdf:RDF></metadata><defs
   id="defs69" /><sodipodi:namedview
   pagecolor="#ffffff"
   bordercolor="#666666"
   borderopacity="1"
   objecttolerance="10"
   gridtolerance="10"
   guidetolerance="10"
   inkscape:pageopacity="0"
   inkscape:pageshadow="2"
   inkscape:window-width="1920"
   inkscape:window-height="1001"
   id="namedview67"
   showgrid="false"
   inkscape:zoom="6.8964373"
   inkscape:cx="34.176016"
   inkscape:cy="23.354032"
   inkscape:window-x="-9"
   inkscape:window-y="-9"
   inkscape:window-maximized="1"
   inkscape:current-layer="Capa_1" />

<g
   id="g22"
   style="fill:#00004e;fill-opacity:1">
	<path
   style="fill:#00004e;fill-opacity:1"
   d="m 12.806,34.876 c 0.719,0.079 1.418,0.223 2.087,0.439 C 14.447,33.288 33.045197,21.753571 34.467197,20.026571 36.339197,17.753571 21.197,26.294 23.842,27.133 l 0.012,0.004 C 24.67,25.082 30.438755,26.72503 32.754755,26.18003 33.578755,25.98603 30.402,22.674 31.197,22.77 c -0.007,-0.155 2.027644,4.512013 2.027644,4.355013 0,-2.063 3.167304,-3.264275 -0.418644,-10.424013 C 30.39,12.7 26.015,10.014 21,10.014 c -7.618,0 -13.793,6.175 -13.793,13.793 0,4.544 2.207,8.559 5.599,11.069 z"
   id="path20"
   sodipodi:nodetypes="cccccccscssc" />
</g>




<g
   id="g36">
</g>
<g
   id="g38">
</g>
<g
   id="g40">
</g>
<g
   id="g42">
</g>
<g
   id="g44">
</g>
<g
   id="g46">
</g>
<g
   id="g48">
</g>
<g
   id="g50">
</g>
<g
   id="g52">
</g>
<g
   id="g54">
</g>
<g
   id="g56">
</g>
<g
   id="g58">
</g>
<g
   id="g60">
</g>
<g
   id="g62">
</g>
<g
   id="g64">
</g>
<path
   d="M 43.248157,35.624141 A 14.765489,14.765489 0 0 0 14.63592,32.375734 9.8436596,9.8436596 0 0 0 15.446381,52.030241 H 43.33675 a 8.2031696,8.2031696 0 1 0 -0.08859,-16.4061 z"
   id="path2-4"
   style="fill:#71a8de;fill-opacity:1;stroke-width:3.28122" /><path
   d="M 51.551084,39.998693 C 49.98142,37.235995 47.338985,35.245558 44.25037,34.499369 41.83321,25.348316 34.466756,19.997164 25.165092,21.747439 c 5.690511,-10.479012 19.567902,-8.93989 22.546965,2.606398 9.026527,-0.460841 12.053928,11.879063 3.839027,15.648138 z"
   id="path4-0"
   style="fill:#71a8de;fill-opacity:1;stroke-width:3.28122"
   sodipodi:nodetypes="cccccc" /></svg>
