<?xml version="1.0" encoding="UTF-8" standalone="no"?>
<svg
   xmlns:dc="http://purl.org/dc/elements/1.1/"
   xmlns:cc="http://creativecommons.org/ns#"
   xmlns:rdf="http://www.w3.org/1999/02/22-rdf-syntax-ns#"
   xmlns:svg="http://www.w3.org/2000/svg"
   xmlns="http://www.w3.org/2000/svg"
   xmlns:sodipodi="http://sodipodi.sourceforge.net/DTD/sodipodi-0.dtd"
   xmlns:inkscape="http://www.inkscape.org/namespaces/inkscape"
   width="16px"
   height="16px"
   viewBox="0 0 16 16"
   fill="currentColor"
   class="bi bi-clouds-fill"
   version="1.1"
   id="svg6"
   sodipodi:docname="09d.svg"
   inkscape:version="1.0.2-2 (e86c870879, 2021-01-15)">
  <metadata
     id="metadata12">
    <rdf:RDF>
      <cc:Work
         rdf:about="">
        <dc:format>image/svg+xml</dc:format>
        <dc:type
           rdf:resource="http://purl.org/dc/dcmitype/StillImage" />
        <dc:title />
      </cc:Work>
    </rdf:RDF>
  </metadata>
  <defs
     id="defs10" />
  <sodipodi:namedview
     pagecolor="#ffffff"
     bordercolor="#666666"
     borderopacity="1"
     objecttolerance="10"
     gridtolerance="10"
     guidetolerance="10"
     inkscape:pageopacity="0"
     inkscape:pageshadow="2"
     inkscape:window-width="1920"
     inkscape:window-height="1001"
     id="namedview8"
     showgrid="false"
     inkscape:zoom="25.9375"
     inkscape:cx="-5.1361167"
     inkscape:cy="10.587251"
     inkscape:window-x="-9"
     inkscape:window-y="-9"
     inkscape:window-maximized="1"
     inkscape:current-layer="svg6"
     inkscape:document-rotation="0" />
  <path
     d="M11.473 9a4.5 4.5 0 0 0-8.72-.99A3 3 0 0 0 3 14h8.5a2.5 2.5 0 1 0-.027-5z"
     id="path2"
     style="fill:#718094;fill-opacity:1" />
  <path
     d="M 14.003439,10.333209 C 13.525061,9.4912361 12.71974,8.8846209 11.778439,8.6572087 11.041774,5.8682913 8.7967389,4.2374493 5.9619204,4.7708714 7.6961866,1.5772383 11.925526,2.0463075 12.833439,5.5652087 c 2.750967,-0.1404481 3.673612,3.6203192 1.17,4.7690003 z"
     id="path4"
     style="fill:#000000;fill-opacity:0.63118809"
     sodipodi:nodetypes="cccccc" />
  <circle
     style="opacity:1;fill:#5292ff;fill-opacity:1;stroke-opacity:0"
     id="path831"
     sodipodi:type="arc"
     sodipodi:cx="9.7980404"
     sodipodi:cy="9.8008728"
     sodipodi:rx="0.2313253"
     sodipodi:ry="0.73734939"
     sodipodi:start="0"
     sodipodi:end="6.2827839"
     sodipodi:arc-type="slice"
     d="M 10.029366,9.8008728 A 0.2313253,0.73734939 0 0 1 9.7980636,10.538222 0.2313253,0.73734939 0 0 1 9.5667151,9.8010208 0.2313253,0.73734939 0 0 1 9.7979707,9.0635234 0.2313253,0.73734939 0 0 1 10.029366,9.8005768 l -0.2313256,2.96e-4 z"
     transform="rotate(37.639338)"
     inkscape:transform-center-x="-0.2313253"
     inkscape:transform-center-y="-0.48192771" />
  <circle
     style="fill:#5292ff;fill-opacity:1;stroke-opacity:0"
     id="path831-1"
     sodipodi:type="arc"
     sodipodi:cx="10.410447"
     sodipodi:cy="8.890399"
     sodipodi:rx="0.2313253"
     sodipodi:ry="0.73734939"
     sodipodi:start="0"
     sodipodi:end="6.2827839"
     sodipodi:arc-type="slice"
     transform="rotate(37.639338)"
     inkscape:transform-center-x="-0.2313253"
     inkscape:transform-center-y="-0.48192771"
     d="M 10.641772,8.890399 A 0.2313253,0.73734939 0 0 1 10.41047,9.6277484 0.2313253,0.73734939 0 0 1 10.179122,8.890547 0.2313253,0.73734939 0 0 1 10.410377,8.1530496 0.2313253,0.73734939 0 0 1 10.641772,8.890103 l -0.231325,2.96e-4 z" />
  <circle
     style="fill:#5292ff;fill-opacity:1;stroke-opacity:0"
     id="path831-1-3"
     sodipodi:type="arc"
     sodipodi:cx="11.238516"
     sodipodi:cy="9.3959503"
     sodipodi:rx="0.2313253"
     sodipodi:ry="0.73734939"
     sodipodi:start="0"
     sodipodi:end="6.2827839"
     sodipodi:arc-type="slice"
     transform="rotate(37.639338)"
     inkscape:transform-center-x="-0.2313253"
     inkscape:transform-center-y="-0.48192771"
     d="M 11.469841,9.3959503 A 0.2313253,0.73734939 0 0 1 11.238539,10.1333 0.2313253,0.73734939 0 0 1 11.007191,9.3960983 0.2313253,0.73734939 0 0 1 11.238446,8.658601 0.2313253,0.73734939 0 0 1 11.469841,9.3956543 l -0.231325,2.96e-4 z" />
  <circle
     style="fill:#5292ff;fill-opacity:1;stroke-opacity:0"
     id="path831-1-3-9"
     sodipodi:type="arc"
     sodipodi:cx="11.899819"
     sodipodi:cy="8.1069546"
     sodipodi:rx="0.2313253"
     sodipodi:ry="0.73734939"
     sodipodi:start="0"
     sodipodi:end="6.2827839"
     sodipodi:arc-type="slice"
     transform="rotate(37.639338)"
     inkscape:transform-center-x="-0.2313253"
     inkscape:transform-center-y="-0.48192771"
     d="M 12.131145,8.1069546 A 0.2313253,0.73734939 0 0 1 11.899843,8.844304 0.2313253,0.73734939 0 0 1 11.668494,8.1071026 0.2313253,0.73734939 0 0 1 11.89975,7.3696052 0.2313253,0.73734939 0 0 1 12.131145,8.1066586 l -0.231326,2.96e-4 z" />
  <circle
     style="fill:#5292ff;fill-opacity:1;stroke-opacity:0"
     id="path831-1-3-9-0"
     sodipodi:type="arc"
     sodipodi:cx="12.821286"
     sodipodi:cy="8.1022902"
     sodipodi:rx="0.2313253"
     sodipodi:ry="0.73734939"
     sodipodi:start="0"
     sodipodi:end="6.2827839"
     sodipodi:arc-type="slice"
     transform="rotate(37.639338)"
     inkscape:transform-center-x="-0.2313253"
     inkscape:transform-center-y="-0.48192771"
     d="m 13.052612,8.1022902 a 0.2313253,0.73734939 0 0 1 -0.231303,0.7373493 0.2313253,0.73734939 0 0 1 -0.231348,-0.7372014 0.2313253,0.73734939 0 0 1 0.231256,-0.7374973 0.2313253,0.73734939 0 0 1 0.231394,0.7370534 l -0.231325,2.96e-4 z" />
  <circle
     style="fill:#5292ff;fill-opacity:1;stroke-opacity:0"
     id="path831-1-3-9-0-7"
     sodipodi:type="arc"
     sodipodi:cx="13.295527"
     sodipodi:cy="6.6654305"
     sodipodi:rx="0.2313253"
     sodipodi:ry="0.73734939"
     sodipodi:start="0"
     sodipodi:end="6.2827839"
     sodipodi:arc-type="slice"
     transform="rotate(37.639338)"
     inkscape:transform-center-x="-0.2313253"
     inkscape:transform-center-y="-0.48192771"
     d="m 13.526853,6.6654305 a 0.2313253,0.73734939 0 0 1 -0.231302,0.7373494 0.2313253,0.73734939 0 0 1 -0.231349,-0.7372014 0.2313253,0.73734939 0 0 1 0.231256,-0.7374973 0.2313253,0.73734939 0 0 1 0.231395,0.7370534 l -0.231326,2.959e-4 z" />
  <circle
     style="fill:#5292ff;fill-opacity:1;stroke-opacity:0"
     id="path831-1-3-9-0-7-1"
     sodipodi:type="arc"
     sodipodi:cx="14.177157"
     sodipodi:cy="7.7139268"
     sodipodi:rx="0.2313253"
     sodipodi:ry="0.73734939"
     sodipodi:start="0"
     sodipodi:end="6.2827839"
     sodipodi:arc-type="slice"
     transform="rotate(37.639338)"
     inkscape:transform-center-x="-0.2313253"
     inkscape:transform-center-y="-0.48192771"
     d="m 14.408483,7.7139268 a 0.2313253,0.73734939 0 0 1 -0.231302,0.7373494 0.2313253,0.73734939 0 0 1 -0.231349,-0.7372014 0.2313253,0.73734939 0 0 1 0.231256,-0.7374974 0.2313253,0.73734939 0 0 1 0.231395,0.7370534 l -0.231326,2.96e-4 z" />
  <circle
     style="fill:#5292ff;fill-opacity:1;stroke-opacity:0"
     id="path831-1-3-9-0-7-1-1"
     sodipodi:type="arc"
     sodipodi:cx="14.752563"
     sodipodi:cy="6.3451128"
     sodipodi:rx="0.2313253"
     sodipodi:ry="0.73734939"
     sodipodi:start="0"
     sodipodi:end="6.2827839"
     sodipodi:arc-type="slice"
     transform="rotate(37.639338)"
     inkscape:transform-center-x="-0.2313253"
     inkscape:transform-center-y="-0.48192771"
     d="m 14.983889,6.3451128 a 0.2313253,0.73734939 0 0 1 -0.231302,0.7373494 0.2313253,0.73734939 0 0 1 -0.231349,-0.7372014 0.2313253,0.73734939 0 0 1 0.231256,-0.7374974 0.2313253,0.73734939 0 0 1 0.231395,0.7370534 l -0.231326,2.96e-4 z" />
  <circle
     style="fill:#5292ff;fill-opacity:1;stroke-opacity:0"
     id="path831-1-3-9-0-7-1-1-4"
     sodipodi:type="arc"
     sodipodi:cx="15.704681"
     sodipodi:cy="5.4647775"
     sodipodi:rx="0.2313253"
     sodipodi:ry="0.73734939"
     sodipodi:start="0"
     sodipodi:end="6.2827839"
     sodipodi:arc-type="slice"
     transform="rotate(37.639338)"
     inkscape:transform-center-x="-0.2313253"
     inkscape:transform-center-y="-0.48192771"
     d="m 15.936007,5.4647775 a 0.2313253,0.73734939 0 0 1 -0.231302,0.7373494 0.2313253,0.73734939 0 0 1 -0.231349,-0.7372014 0.2313253,0.73734939 0 0 1 0.231256,-0.7374974 0.2313253,0.73734939 0 0 1 0.231395,0.7370534 l -0.231326,2.96e-4 z" />
  <circle
     style="fill:#5292ff;fill-opacity:1;stroke-opacity:0"
     id="path831-1-3-9-0-7-1-1-4-8"
     sodipodi:type="arc"
     sodipodi:cx="16.301432"
     sodipodi:cy="4.249907"
     sodipodi:rx="0.2313253"
     sodipodi:ry="0.73734939"
     sodipodi:start="0"
     sodipodi:end="6.2827839"
     sodipodi:arc-type="slice"
     transform="rotate(37.639338)"
     inkscape:transform-center-x="-0.2313253"
     inkscape:transform-center-y="-0.48192771"
     d="M 16.532757,4.249907 A 0.2313253,0.73734939 0 0 1 16.301455,4.9872564 0.2313253,0.73734939 0 0 1 16.070106,4.250055 0.2313253,0.73734939 0 0 1 16.301362,3.5125577 0.2313253,0.73734939 0 0 1 16.532757,4.249611 l -0.231325,2.96e-4 z" />
  <circle
     style="fill:#5292ff;fill-opacity:1;stroke-opacity:0"
     id="path831-1-3-9-0-7-1-1-4-8-7"
     sodipodi:type="arc"
     sodipodi:cx="15.574036"
     sodipodi:cy="7.2209067"
     sodipodi:rx="0.2313253"
     sodipodi:ry="0.73734939"
     sodipodi:start="0"
     sodipodi:end="6.2827839"
     sodipodi:arc-type="slice"
     transform="rotate(37.639338)"
     inkscape:transform-center-x="-0.2313253"
     inkscape:transform-center-y="-0.48192771"
     d="M 15.805361,7.2209067 A 0.2313253,0.73734939 0 0 1 15.574059,7.9582561 0.2313253,0.73734939 0 0 1 15.34271,7.2210547 0.2313253,0.73734939 0 0 1 15.573966,6.4835574 0.2313253,0.73734939 0 0 1 15.805361,7.2206108 l -0.231325,2.959e-4 z" />
  <circle
     style="fill:#5292ff;fill-opacity:1;stroke-opacity:0"
     id="path831-1-3-9-0-7-1-1-4-8-7-2"
     sodipodi:type="arc"
     sodipodi:cx="13.539006"
     sodipodi:cy="8.7172861"
     sodipodi:rx="0.2313253"
     sodipodi:ry="0.73734939"
     sodipodi:start="0"
     sodipodi:end="6.2827839"
     sodipodi:arc-type="slice"
     transform="rotate(37.639338)"
     inkscape:transform-center-x="-0.2313253"
     inkscape:transform-center-y="-0.48192771"
     d="m 13.770332,8.7172861 a 0.2313253,0.73734939 0 0 1 -0.231303,0.7373494 0.2313253,0.73734939 0 0 1 -0.231348,-0.7372014 0.2313253,0.73734939 0 0 1 0.231256,-0.7374973 0.2313253,0.73734939 0 0 1 0.231395,0.7370533 l -0.231326,2.96e-4 z" />
  <circle
     style="fill:#5292ff;fill-opacity:1;stroke-opacity:0"
     id="path831-1-3-9-0-7-1-1-4-8-7-2-0"
     sodipodi:type="arc"
     sodipodi:cx="12.419877"
     sodipodi:cy="9.5073252"
     sodipodi:rx="0.2313253"
     sodipodi:ry="0.73734939"
     sodipodi:start="0"
     sodipodi:end="6.2827839"
     sodipodi:arc-type="slice"
     transform="rotate(37.639338)"
     inkscape:transform-center-x="-0.2313253"
     inkscape:transform-center-y="-0.48192771"
     d="M 12.651202,9.5073252 A 0.2313253,0.73734939 0 0 1 12.4199,10.244675 0.2313253,0.73734939 0 0 1 12.188552,9.5074732 0.2313253,0.73734939 0 0 1 12.419807,8.7699758 0.2313253,0.73734939 0 0 1 12.651202,9.5070292 l -0.231325,2.96e-4 z" />
  <circle
     style="fill:#5292ff;fill-opacity:1;stroke-opacity:0"
     id="path831-1-3-9-0-7-1-1-4-8-7-2-0-8"
     sodipodi:type="arc"
     sodipodi:cx="10.827532"
     sodipodi:cy="10.662307"
     sodipodi:rx="0.2313253"
     sodipodi:ry="0.73734939"
     sodipodi:start="0"
     sodipodi:end="6.2827839"
     sodipodi:arc-type="slice"
     transform="rotate(37.639338)"
     inkscape:transform-center-x="-0.2313253"
     inkscape:transform-center-y="-0.48192771"
     d="m 11.058857,10.662307 a 0.2313253,0.73734939 0 0 1 -0.231302,0.737349 0.2313253,0.73734939 0 0 1 -0.231348,-0.737201 0.2313253,0.73734939 0 0 1 0.231255,-0.7374976 0.2313253,0.73734939 0 0 1 0.231395,0.7370536 l -0.231325,2.96e-4 z" />
  <circle
     style="fill:#5292ff;fill-opacity:1;stroke-opacity:0"
     id="path831-1-3-9-0-7-1-1-4-8-7-2-0-8-5"
     sodipodi:type="arc"
     sodipodi:cx="9.9011564"
     sodipodi:cy="11.449759"
     sodipodi:rx="0.2313253"
     sodipodi:ry="0.73734939"
     sodipodi:start="0"
     sodipodi:end="6.2827839"
     sodipodi:arc-type="slice"
     transform="rotate(37.639338)"
     inkscape:transform-center-x="-0.2313253"
     inkscape:transform-center-y="-0.48192771"
     d="m 10.132482,11.449759 a 0.2313253,0.73734939 0 0 1 -0.2313024,0.737349 0.2313253,0.73734939 0 0 1 -0.2313485,-0.737201 0.2313253,0.73734939 0 0 1 0.2312557,-0.737498 0.2313253,0.73734939 0 0 1 0.2313952,0.737054 l -0.2313256,2.96e-4 z" />
</svg>
