<?xml version="1.0" encoding="UTF-8" standalone="no"?>
<svg
   xmlns:dc="http://purl.org/dc/elements/1.1/"
   xmlns:cc="http://creativecommons.org/ns#"
   xmlns:rdf="http://www.w3.org/1999/02/22-rdf-syntax-ns#"
   xmlns:svg="http://www.w3.org/2000/svg"
   xmlns="http://www.w3.org/2000/svg"
   xmlns:sodipodi="http://sodipodi.sourceforge.net/DTD/sodipodi-0.dtd"
   xmlns:inkscape="http://www.inkscape.org/namespaces/inkscape"
   version="1.1"
   id="Capa_1"
   x="0px"
   y="0px"
   viewBox="0 0 60.176 60.176"
   style="enable-background:new 0 0 60.176 60.176;"
   xml:space="preserve"
   sodipodi:docname="13d.svg"
   inkscape:version="1.0.2-2 (e86c870879, 2021-01-15)"><metadata
   id="metadata71"><rdf:RDF><cc:Work
       rdf:about=""><dc:format>image/svg+xml</dc:format><dc:type
         rdf:resource="http://purl.org/dc/dcmitype/StillImage" /><dc:title></dc:title></cc:Work></rdf:RDF></metadata><defs
   id="defs69" /><sodipodi:namedview
   pagecolor="#ffffff"
   bordercolor="#666666"
   borderopacity="1"
   objecttolerance="10"
   gridtolerance="10"
   guidetolerance="10"
   inkscape:pageopacity="0"
   inkscape:pageshadow="2"
   inkscape:window-width="1920"
   inkscape:window-height="1001"
   id="namedview67"
   showgrid="false"
   inkscape:zoom="9.7530352"
   inkscape:cx="24.060841"
   inkscape:cy="35.650409"
   inkscape:window-x="-9"
   inkscape:window-y="-9"
   inkscape:window-maximized="1"
   inkscape:current-layer="Capa_1"
   inkscape:document-rotation="0" />






<g
   id="g36">
</g>
<g
   id="g38">
</g>
<g
   id="g40">
</g>
<g
   id="g42">
</g>
<g
   id="g44">
</g>
<g
   id="g46">
</g>
<g
   id="g48">
</g>
<g
   id="g50">
</g>
<g
   id="g52">
</g>
<g
   id="g54">
</g>
<g
   id="g56">
</g>
<g
   id="g58">
</g>
<g
   id="g60">
</g>
<g
   id="g62">
</g>
<g
   id="g64">
</g>
<path
   d="m 46.988552,37.513282 -2.83749,-1.639066 a 7.4717751,7.4717751 0 0 1 1.74756,-1.335288 1.8360221,1.8360221 0 0 0 -1.77594,-3.213873 11.15133,11.15133 0 0 0 -3.21721,2.678921 l -7.353267,-4.252057 7.351607,-4.244548 a 11.137977,11.137977 0 0 0 3.21721,2.678921 1.8360221,1.8360221 0 1 0 1.77593,-3.213874 7.4893008,7.4893008 0 0 1 -1.74756,-1.335288 l 2.83749,-1.639065 a 1.8360221,1.8360221 0 1 0 -1.83435,-3.178823 l -2.8375,1.63823 a 7.4893008,7.4893008 0 0 1 -0.28541,-2.182364 1.8360221,1.8360221 0 0 0 -1.80097,-1.876077 h -0.0342 a 1.8360221,1.8360221 0 0 0 -1.836018,1.801803 11.150496,11.150496 0 0 0 0.709371,4.123542 l -7.351596,4.247048 v -8.48826 a 11.141315,11.141315 0 0 0 3.928253,-1.446285 1.8361549,1.8361549 0 0 0 -1.895275,-3.145436 7.4742788,7.4742788 0 0 1 -2.032978,0.843731 v -2.776565 a 1.8360221,1.8360221 0 0 0 -3.672044,0 v 2.776565 a 7.4742788,7.4742788 0 0 1 -2.032979,-0.843731 1.8361549,1.8361549 0 1 0 -1.895275,3.145436 11.141315,11.141315 0 0 0 3.928254,1.446285 v 8.48826 L 20.69256,22.324376 a 11.150496,11.150496 0 0 0 0.711044,-4.125206 1.8360221,1.8360221 0 0 0 -1.836018,-1.801811 h -0.03589 a 1.8360221,1.8360221 0 0 0 -1.801811,1.870241 7.4893008,7.4893008 0 0 1 -0.28458,2.185699 l -2.837486,-1.634057 a 1.8360221,1.8360221 0 1 0 -1.836026,3.179659 l 2.837494,1.639065 a 7.4893008,7.4893008 0 0 1 -1.747563,1.335288 1.8360221,1.8360221 0 1 0 1.775933,3.213874 11.15133,11.15133 0 0 0 3.21721,-2.678921 l 7.353269,4.243712 -7.351597,4.244548 a 11.15133,11.15133 0 0 0 -3.21721,-2.678921 1.8360221,1.8360221 0 1 0 -1.775933,3.213874 7.4893008,7.4893008 0 0 1 1.747555,1.335288 l -2.839158,1.646574 a 1.8360221,1.8360221 0 1 0 1.836026,3.179659 l 2.837486,-1.63823 a 7.4893008,7.4893008 0 0 1 0.285416,2.182363 1.8360221,1.8360221 0 0 0 1.800975,1.867733 h 0.03423 a 1.8360221,1.8360221 0 0 0 1.836018,-1.801803 11.150496,11.150496 0 0 0 -0.709371,-4.123542 l 7.351604,-4.247056 v 8.488268 a 11.141315,11.141315 0 0 0 -3.928253,1.446285 1.8361549,1.8361549 0 1 0 1.895275,3.145436 7.4742788,7.4742788 0 0 1 2.032978,-0.843731 v 2.776565 a 1.8360221,1.8360221 0 0 0 3.672044,0 v -2.776565 a 7.4742788,7.4742788 0 0 1 2.032979,0.843731 1.8361549,1.8361549 0 0 0 1.895275,-3.145436 11.141315,11.141315 0 0 0 -3.928254,-1.446285 v -8.488268 l 7.351597,4.247056 a 11.150496,11.150496 0 0 0 -0.711044,4.125206 1.8360221,1.8360221 0 0 0 1.836028,1.801811 h 0.0359 a 1.8360221,1.8360221 0 0 0 1.8018,-1.870241 7.4893008,7.4893008 0 0 1 0.28458,-2.185699 l 2.8375,1.638229 a 1.8360221,1.8360221 0 1 0 1.83601,-3.175486 z"
   id="path1102"
   style="fill:#5199cd;fill-opacity:1;stroke-width:0.0834558" /></svg>
