<?xml version="1.0" encoding="UTF-8" standalone="no"?>
<svg
   xmlns:dc="http://purl.org/dc/elements/1.1/"
   xmlns:cc="http://creativecommons.org/ns#"
   xmlns:rdf="http://www.w3.org/1999/02/22-rdf-syntax-ns#"
   xmlns:svg="http://www.w3.org/2000/svg"
   xmlns="http://www.w3.org/2000/svg"
   xmlns:sodipodi="http://sodipodi.sourceforge.net/DTD/sodipodi-0.dtd"
   xmlns:inkscape="http://www.inkscape.org/namespaces/inkscape"
   version="1.1"
   id="Capa_1"
   x="0px"
   y="0px"
   viewBox="0 0 60.176 60.176"
   style="enable-background:new 0 0 60.176 60.176;"
   xml:space="preserve"
   sodipodi:docname="50d.svg"
   inkscape:version="1.0.2-2 (e86c870879, 2021-01-15)"><metadata
   id="metadata71"><rdf:RDF><cc:Work
       rdf:about=""><dc:format>image/svg+xml</dc:format><dc:type
         rdf:resource="http://purl.org/dc/dcmitype/StillImage" /><dc:title></dc:title></cc:Work></rdf:RDF></metadata><defs
   id="defs69" /><sodipodi:namedview
   pagecolor="#ffffff"
   bordercolor="#666666"
   borderopacity="1"
   objecttolerance="10"
   gridtolerance="10"
   guidetolerance="10"
   inkscape:pageopacity="0"
   inkscape:pageshadow="2"
   inkscape:window-width="1920"
   inkscape:window-height="1001"
   id="namedview67"
   showgrid="false"
   inkscape:zoom="6.8964373"
   inkscape:cx="15.414314"
   inkscape:cy="45.492263"
   inkscape:window-x="-9"
   inkscape:window-y="-9"
   inkscape:window-maximized="1"
   inkscape:current-layer="Capa_1"
   inkscape:document-rotation="0" />






<g
   id="g36">
</g>
<g
   id="g38">
</g>
<g
   id="g40">
</g>
<g
   id="g42">
</g>
<g
   id="g44">
</g>
<g
   id="g46">
</g>
<g
   id="g48">
</g>
<g
   id="g50">
</g>
<g
   id="g52">
</g>
<g
   id="g54">
</g>
<g
   id="g56">
</g>
<g
   id="g58">
</g>
<g
   id="g60">
</g>
<g
   id="g62">
</g>
<g
   id="g64">
</g>
<g
   id="g1183"
   transform="matrix(0.2142171,0,0,0.2142171,8.1849248,7.6135707)"
   style="fill:#78889d;fill-opacity:1"><g
     id="g1123"
     style="fill:#78889d;fill-opacity:1">
	<path
   d="m 144.797,47.095 c 0,-4.142 -3.358,-7.5 -7.5,-7.5 H 7.5 c -4.142,0 -7.5,3.358 -7.5,7.5 0,4.142 3.358,7.5 7.5,7.5 h 129.797 c 4.142,0 7.5,-3.358 7.5,-7.5 z"
   id="path1113"
   style="fill:#78889d;fill-opacity:1" />
	<path
   d="M 209.93,70.405 H 58.632 c -4.142,0 -7.5,3.358 -7.5,7.5 0,4.142 3.358,7.5 7.5,7.5 H 209.93 c 4.142,0 7.5,-3.358 7.5,-7.5 0,-4.142 -3.358,-7.5 -7.5,-7.5 z"
   id="path1115"
   style="fill:#78889d;fill-opacity:1" />
	<path
   d="m 174.53,116.214 c 4.142,0 7.5,-3.358 7.5,-7.5 0,-4.142 -3.358,-7.5 -7.5,-7.5 H 22.446 c -4.142,0 -7.5,3.358 -7.5,7.5 0,4.142 3.358,7.5 7.5,7.5 z"
   id="path1117"
   style="fill:#78889d;fill-opacity:1" />
	<path
   d="M 199.441,132.024 H 47.619 c -4.142,0 -7.5,3.358 -7.5,7.5 0,4.142 3.358,7.5 7.5,7.5 h 151.822 c 4.142,0 7.5,-3.358 7.5,-7.5 0,-4.142 -3.358,-7.5 -7.5,-7.5 z"
   id="path1119"
   style="fill:#78889d;fill-opacity:1" />
	<path
   d="M 125.759,162.835 H 25.068 c -4.142,0 -7.5,3.358 -7.5,7.5 0,4.142 3.358,7.5 7.5,7.5 h 100.69 c 4.142,0 7.5,-3.358 7.5,-7.5 10e-4,-4.142 -3.357,-7.5 -7.499,-7.5 z"
   id="path1121"
   style="fill:#78889d;fill-opacity:1" />
</g><g
     id="g1125"
     style="fill:#78889d;fill-opacity:1">
</g><g
     id="g1127"
     style="fill:#78889d;fill-opacity:1">
</g><g
     id="g1129"
     style="fill:#78889d;fill-opacity:1">
</g><g
     id="g1131"
     style="fill:#78889d;fill-opacity:1">
</g><g
     id="g1133"
     style="fill:#78889d;fill-opacity:1">
</g><g
     id="g1135"
     style="fill:#78889d;fill-opacity:1">
</g><g
     id="g1137"
     style="fill:#78889d;fill-opacity:1">
</g><g
     id="g1139"
     style="fill:#78889d;fill-opacity:1">
</g><g
     id="g1141"
     style="fill:#78889d;fill-opacity:1">
</g><g
     id="g1143"
     style="fill:#78889d;fill-opacity:1">
</g><g
     id="g1145"
     style="fill:#78889d;fill-opacity:1">
</g><g
     id="g1147"
     style="fill:#78889d;fill-opacity:1">
</g><g
     id="g1149"
     style="fill:#78889d;fill-opacity:1">
</g><g
     id="g1151"
     style="fill:#78889d;fill-opacity:1">
</g><g
     id="g1153"
     style="fill:#78889d;fill-opacity:1">
</g></g></svg>
