<?xml version="1.0" encoding="UTF-8" standalone="no"?>
<svg
   xmlns:dc="http://purl.org/dc/elements/1.1/"
   xmlns:cc="http://creativecommons.org/ns#"
   xmlns:rdf="http://www.w3.org/1999/02/22-rdf-syntax-ns#"
   xmlns:svg="http://www.w3.org/2000/svg"
   xmlns="http://www.w3.org/2000/svg"
   xmlns:sodipodi="http://sodipodi.sourceforge.net/DTD/sodipodi-0.dtd"
   xmlns:inkscape="http://www.inkscape.org/namespaces/inkscape"
   width="16"
   height="16"
   viewBox="0 0 16 16"
   version="1.1"
   id="svg12"
   sodipodi:docname="humidity.svg"
   inkscape:version="1.0.2-2 (e86c870879, 2021-01-15)">
  <metadata
     id="metadata18">
    <rdf:RDF>
      <cc:Work
         rdf:about="">
        <dc:format>image/svg+xml</dc:format>
        <dc:type
           rdf:resource="http://purl.org/dc/dcmitype/StillImage" />
        <dc:title></dc:title>
      </cc:Work>
    </rdf:RDF>
  </metadata>
  <defs
     id="defs16" />
  <sodipodi:namedview
     pagecolor="#ffffff"
     bordercolor="#666666"
     borderopacity="1"
     objecttolerance="10"
     gridtolerance="10"
     guidetolerance="10"
     inkscape:pageopacity="0"
     inkscape:pageshadow="2"
     inkscape:window-width="1920"
     inkscape:window-height="1001"
     id="namedview14"
     showgrid="false"
     inkscape:zoom="18.340582"
     inkscape:cx="1.5144603"
     inkscape:cy="17.380074"
     inkscape:window-x="-9"
     inkscape:window-y="-9"
     inkscape:window-maximized="1"
     inkscape:current-layer="svg12" />
  <g
     fill="none"
     fill-rule="evenodd"
     id="g10"
     transform="matrix(0.2542538,0,0,0.2542538,-0.10377125,-0.12663618)">
    <path
       fill="#b4dffb"
       d="M 26.699566,63 C 36.474767,63 44.399132,55.075634 44.399132,45.300434 44.399132,35.525233 26.699566,9 26.699566,9 26.699566,9 9,35.525233 9,45.300434 9,55.075634 16.924366,63 26.699566,63 Z"
       id="path2" />
    <path
       fill="#4796e7"
       d="M 41.11079,41 C 48.351679,41 54.22158,35.130099 54.22158,27.88921 54.22158,20.648321 41.11079,1 41.11079,1 41.11079,1 28,20.648321 28,27.88921 28,35.130099 33.8699,41 41.11079,41 Z"
       id="path4" />
    <path
       stroke="#b4dffb"
       stroke-linecap="round"
       stroke-width="2"
       d="m 32,28 c 0,4.970563 4.029437,9 9,9 v 0"
       id="path6" />
    <path
       stroke="#ffffff"
       stroke-linecap="round"
       stroke-width="2"
       d="m 13,46 c 0,6.627417 5.372583,12 12,12 v 0"
       id="path8" />
  </g>
</svg>
