<?xml version="1.0" encoding="UTF-8" standalone="no"?>
<svg
   xmlns:dc="http://purl.org/dc/elements/1.1/"
   xmlns:cc="http://creativecommons.org/ns#"
   xmlns:rdf="http://www.w3.org/1999/02/22-rdf-syntax-ns#"
   xmlns:svg="http://www.w3.org/2000/svg"
   xmlns="http://www.w3.org/2000/svg"
   xmlns:sodipodi="http://sodipodi.sourceforge.net/DTD/sodipodi-0.dtd"
   xmlns:inkscape="http://www.inkscape.org/namespaces/inkscape"
   version="1.1"
   id="Layer_1"
   x="0px"
   y="0px"
   viewBox="0 0 210.254 496.254"
   xml:space="preserve"
   sodipodi:docname="thermometer-cold.svg"
   width="210.254"
   height="496.254"
   inkscape:version="1.0.2-2 (e86c870879, 2021-01-15)"><metadata
   id="metadata77"><rdf:RDF><cc:Work
       rdf:about=""><dc:format>image/svg+xml</dc:format><dc:type
         rdf:resource="http://purl.org/dc/dcmitype/StillImage" /><dc:title></dc:title></cc:Work></rdf:RDF></metadata><defs
   id="defs75" /><sodipodi:namedview
   pagecolor="#ffffff"
   bordercolor="#666666"
   borderopacity="1"
   objecttolerance="10"
   gridtolerance="10"
   guidetolerance="10"
   inkscape:pageopacity="0"
   inkscape:pageshadow="2"
   inkscape:window-width="1920"
   inkscape:window-height="1001"
   id="namedview73"
   showgrid="false"
   inkscape:zoom="1.1826577"
   inkscape:cx="218.15552"
   inkscape:cy="256.38617"
   inkscape:window-x="-9"
   inkscape:window-y="-9"
   inkscape:window-maximized="1"
   inkscape:current-layer="Layer_1" />
<circle
   style="fill:#36aaef;stroke-width:0.991847;fill-opacity:1"
   cx="105.22852"
   cy="391.87531"
   r="102.86945"
   id="circle2" />
<path
   style="fill:#3dc6ef;stroke-width:0.991847;fill-opacity:1"
   d="m 208.09796,391.8753 c 0,56.80607 -46.06337,102.8625 -102.8625,102.8625"
   id="path4" />
<path
   style="fill:#36aaef;stroke-width:0.991847;fill-opacity:1"
   d="m 163.81595,337.17095 c 0,32.35208 -26.22742,58.59537 -58.5795,58.59537 v 0 c -32.367947,0 -58.611236,-26.24329 -58.611236,-58.59537 V 61.117024 c 0,-32.367946 26.243289,-58.5953645 58.611236,-58.5953645 v 0 c 32.35208,0 58.5795,26.2274185 58.5795,58.5953645 z"
   id="path6" />
<path
   style="fill:#3dc6ef;stroke-width:0.991847;fill-opacity:1"
   d="M 46.625214,202.40072 V 61.131902 c 0,-32.367946 26.243289,-58.5953648 58.611236,-58.5953648 v 0"
   id="path8" />
<circle
   style="fill:#ff9700;stroke-width:0.991847"
   cx="105.22852"
   cy="391.87531"
   r="29.297186"
   id="circle10" />
<path
   style="fill:#ff7f00;stroke-width:0.991847"
   d="m 134.5257,391.8753 c 0,16.17207 -13.11718,29.29719 -29.29024,29.29719 -16.187944,0 -29.305125,-13.12512 -29.305125,-29.29719"
   id="path12" />
<path
   style="fill:#ff9700;stroke-width:0.991847"
   d="m 114.01827,386.97657 c 0,4.85211 -3.93764,8.78975 -8.78182,8.78975 v 0 c -4.86699,0 -8.80463,-3.93764 -8.80463,-8.78975 V 60.795666 c 0,-4.852117 3.93764,-8.789751 8.80463,-8.789751 v 0 c 4.84418,0 8.78182,3.937634 8.78182,8.789751 z"
   id="path14" />
<g
   id="g40"
   transform="matrix(0.99184734,0,0,0.99184734,-140.87559,2.5365372)">
	<path
   style="fill:#b79639"
   d="m 295.381,108.292 c 0,1.095 -0.882,1.969 -1.969,1.969 h -18.377 c -1.103,0 -1.969,-0.874 -1.969,-1.969 v 0 c 0,-1.095 0.866,-1.969 1.969,-1.969 h 18.377 c 1.086,0 1.969,0.874 1.969,1.969 z"
   id="path16" />
	<path
   style="fill:#b79639"
   d="m 295.381,123.557 c 0,1.095 -0.882,1.969 -1.969,1.969 h -2.623 c -1.103,0 -1.969,-0.874 -1.969,-1.969 v 0 c 0,-1.095 0.866,-1.969 1.969,-1.969 h 2.623 c 1.086,0 1.969,0.875 1.969,1.969 z"
   id="path18" />
	<path
   style="fill:#b79639"
   d="m 295.381,139.8 c 0,1.095 -0.882,1.969 -1.969,1.969 h -18.377 c -1.103,0 -1.969,-0.874 -1.969,-1.969 v 0 c 0,-1.095 0.866,-1.969 1.969,-1.969 h 18.377 c 1.086,-10e-4 1.969,0.874 1.969,1.969 z"
   id="path20" />
	<path
   style="fill:#b79639"
   d="m 295.381,155.065 c 0,1.095 -0.882,1.969 -1.969,1.969 h -2.623 c -1.103,0 -1.969,-0.874 -1.969,-1.969 v 0 c 0,-1.095 0.866,-1.969 1.969,-1.969 h 2.623 c 1.086,0 1.969,0.874 1.969,1.969 z"
   id="path22" />
	<path
   style="fill:#b79639"
   d="m 295.381,171.307 c 0,1.095 -0.882,1.969 -1.969,1.969 h -18.377 c -1.103,0 -1.969,-0.874 -1.969,-1.969 v 0 c 0,-1.095 0.866,-1.969 1.969,-1.969 h 18.377 c 1.086,0 1.969,0.874 1.969,1.969 z"
   id="path24" />
	<path
   style="fill:#b79639"
   d="m 295.381,186.573 c 0,1.095 -0.882,1.969 -1.969,1.969 h -2.623 c -1.103,0 -1.969,-0.874 -1.969,-1.969 v 0 c 0,-1.095 0.866,-1.969 1.969,-1.969 h 2.623 c 1.086,0 1.969,0.874 1.969,1.969 z"
   id="path26" />
	<path
   style="fill:#b79639"
   d="m 295.381,202.815 c 0,1.095 -0.882,1.969 -1.969,1.969 h -18.377 c -1.103,0 -1.969,-0.874 -1.969,-1.969 v 0 c 0,-1.095 0.866,-1.969 1.969,-1.969 h 18.377 c 1.086,0 1.969,0.874 1.969,1.969 z"
   id="path28" />
	<path
   style="fill:#b79639"
   d="m 295.381,218.081 c 0,1.095 -0.882,1.969 -1.969,1.969 h -2.623 c -1.103,0 -1.969,-0.874 -1.969,-1.969 v 0 c 0,-1.095 0.866,-1.969 1.969,-1.969 h 2.623 c 1.086,-0.001 1.969,0.874 1.969,1.969 z"
   id="path30" />
	<path
   style="fill:#b79639"
   d="m 295.381,234.323 c 0,1.095 -0.882,1.969 -1.969,1.969 h -18.377 c -1.103,0 -1.969,-0.874 -1.969,-1.969 v 0 c 0,-1.095 0.866,-1.969 1.969,-1.969 h 18.377 c 1.086,-0.001 1.969,0.874 1.969,1.969 z"
   id="path32" />
	<path
   style="fill:#b79639"
   d="m 295.381,249.588 c 0,1.095 -0.882,1.969 -1.969,1.969 h -2.623 c -1.103,0 -1.969,-0.874 -1.969,-1.969 v 0 c 0,-1.095 0.866,-1.969 1.969,-1.969 h 2.623 c 1.086,0 1.969,0.874 1.969,1.969 z"
   id="path34" />
	<path
   style="fill:#b79639"
   d="m 295.381,265.83 c 0,1.095 -0.882,1.969 -1.969,1.969 h -18.377 c -1.103,0 -1.969,-0.874 -1.969,-1.969 v 0 c 0,-1.095 0.866,-1.969 1.969,-1.969 h 18.377 c 1.086,0 1.969,0.875 1.969,1.969 z"
   id="path36" />
	<path
   style="fill:#b79639"
   d="m 295.381,281.096 c 0,1.095 -0.882,1.969 -1.969,1.969 h -2.623 c -1.103,0 -1.969,-0.874 -1.969,-1.969 v 0 c 0,-1.095 0.866,-1.969 1.969,-1.969 h 2.623 c 1.086,0 1.969,0.874 1.969,1.969 z"
   id="path38" />
</g>
<g
   id="g42">
</g>
<g
   id="g44">
</g>
<g
   id="g46">
</g>
<g
   id="g48">
</g>
<g
   id="g50">
</g>
<g
   id="g52">
</g>
<g
   id="g54">
</g>
<g
   id="g56">
</g>
<g
   id="g58">
</g>
<g
   id="g60">
</g>
<g
   id="g62">
</g>
<g
   id="g64">
</g>
<g
   id="g66">
</g>
<g
   id="g68">
</g>
<g
   id="g70">
</g>
</svg>
